<?xml version="1.0" encoding="UTF-8"?>
<svg id="Capa_2" data-name="Capa 2" xmlns="http://www.w3.org/2000/svg" viewBox="0 0 512 512">
  <g id="Capa_1-2" data-name="Capa 1">
    <path d="M435.4,361.3l-89.7-6c-5.2-.3-10.3,1.1-14.5,4.2s-7.2,7.4-8.4,12.5l-22,87.2c-14.4,3.2-29.4,4.8-44.8,4.8s-30.3-1.7-44.8-4.8l-22-87.2c-1.3-5-4.3-9.4-8.4-12.5s-9.3-4.5-14.5-4.2l-89.7,6c-14.9-25.4-24.7-54.3-27.6-85.1l76-47.9c4.4-2.8,7.6-7,9.2-11.9s1.4-10.2-.5-15l-33.3-83.4c19.9-22.4,44.6-40.5,72.4-52.7l69.1,57.6c4,3.3,9,5.1,14.1,5.1s10.2-1.8,14.1-5.1l69.1-57.6c27.8,12.2,52.5,30.3,72.4,52.7l-33.4,83.4c-1.9,4.8-2.1,10.1-.5,15s4.9,9.1,9.2,11.9l76.1,47.9c-3,30.8-12.7,59.7-27.6,85.1h0Zm-179.4,150.7c141.38,0,256-114.62,256-256S397.38,0,256,0,0,114.62,0,256s114.62,256,256,256Zm14.1-325.7c-8.4-6.1-19.8-6.1-28.2,0l-47.9,34.7c-8.4,6.1-11.9,16.9-8.7,26.8l18.3,56.3c3.2,9.9,12.4,16.6,22.8,16.6h59.2c10.4,0,19.6-6.7,22.8-16.6l18.3-56.3c3.2-9.9-.3-20.7-8.7-26.8l-47.9-34.8v.1Z"/>
  </g>
</svg>